<svg width="30" height="30" viewBox="0 0 30 30" fill="none" xmlns="http://www.w3.org/2000/svg">
<path d="M4.79159 11.6915C5.56072 8.33581 8.12091 5.71564 11.3998 4.92849C13.7678 4.36002 16.2322 4.36002 18.6002 4.92849C21.8791 5.71564 24.4393 8.33582 25.2084 11.6915C25.7639 14.115 25.7639 16.6371 25.2084 19.0606C24.4393 22.4163 21.8791 25.0365 18.6002 25.8237C16.2322 26.3921 13.7678 26.3921 11.3998 25.8237C8.12092 25.0365 5.56072 22.4163 4.79159 19.0606C4.23614 16.6371 4.23614 14.115 4.79159 11.6915Z" fill="white" fill-opacity="0.15"/>
<path d="M4.79159 19.0606L5.52264 18.8931L4.79159 19.0606ZM4.79159 11.6915L5.52264 11.8591L4.79159 11.6915ZM25.2084 11.6915L24.4774 11.8591L25.2084 11.6915ZM25.2084 19.0606L24.4774 18.893L25.2084 19.0606ZM18.6002 25.8237L18.7753 26.5529L18.6002 25.8237ZM11.3998 25.8237L11.5749 25.0944L11.3998 25.8237ZM11.3998 4.92849L11.5749 5.65777L11.3998 4.92849ZM18.6002 4.92849L18.7753 4.19921L18.6002 4.92849ZM10.8376 3.75C10.8376 3.33579 10.5018 3 10.0876 3C9.67339 3 9.3376 3.33579 9.3376 3.75H10.0876H10.8376ZM9.3376 6.89218C9.3376 7.30639 9.67339 7.64218 10.0876 7.64218C10.5018 7.64218 10.8376 7.30639 10.8376 6.89218H10.0876H9.3376ZM20.6624 3.75C20.6624 3.33579 20.3266 3 19.9124 3C19.4982 3 19.1624 3.33579 19.1624 3.75H19.9124H20.6624ZM19.1624 6.89218C19.1624 7.30639 19.4982 7.64218 19.9124 7.64218C20.3266 7.64218 20.6624 7.30639 20.6624 6.89218H19.9124H19.1624ZM4.79159 19.0606L5.52264 18.8931C4.99245 16.5799 4.99245 14.1723 5.52264 11.8591L4.79159 11.6915L4.06055 11.524C3.47982 14.0577 3.47982 16.6944 4.06055 19.2282L4.79159 19.0606ZM25.2084 11.6915L24.4774 11.8591C25.0075 14.1723 25.0075 16.5799 24.4774 18.893L25.2084 19.0606L25.9395 19.2282C26.5202 16.6944 26.5202 14.0577 25.9395 11.524L25.2084 11.6915ZM18.6002 25.8237L18.4251 25.0944C16.1722 25.6352 13.8278 25.6352 11.5749 25.0944L11.3998 25.8237L11.2247 26.5529C13.7078 27.149 16.2922 27.149 18.7753 26.5529L18.6002 25.8237ZM11.3998 4.92849L11.5749 5.65777C13.8278 5.11693 16.1722 5.11693 18.4251 5.65777L18.6002 4.92849L18.7753 4.19921C16.2922 3.60312 13.7078 3.60312 11.2247 4.19921L11.3998 4.92849ZM11.3998 25.8237L11.5749 25.0944C8.58026 24.3755 6.22983 21.9786 5.52264 18.8931L4.79159 19.0606L4.06055 19.2282C4.89161 22.8541 7.66158 25.6975 11.2247 26.5529L11.3998 25.8237ZM18.6002 25.8237L18.7753 26.5529C22.3384 25.6975 25.1084 22.8541 25.9395 19.2282L25.2084 19.0606L24.4774 18.893C23.7702 21.9786 21.4198 24.3755 18.4251 25.0944L18.6002 25.8237ZM18.6002 4.92849L18.4251 5.65777C21.4198 6.37668 23.7702 8.77358 24.4774 11.8591L25.2084 11.6915L25.9395 11.524C25.1084 7.89806 22.3384 5.0546 18.7753 4.19921L18.6002 4.92849ZM11.3998 4.92849L11.2247 4.19921C7.66157 5.0546 4.89161 7.89805 4.06055 11.524L4.79159 11.6915L5.52264 11.8591C6.22983 8.77358 8.58025 6.37668 11.5749 5.65777L11.3998 4.92849ZM5.1752 10.3486V11.0986H24.8248V10.3486V9.59858H5.1752V10.3486ZM10.0876 3.75H9.3376V6.89218H10.0876H10.8376V3.75H10.0876ZM19.9124 3.75H19.1624V6.89218H19.9124H20.6624V3.75H19.9124Z" fill="white"/>
<path d="M16.8023 17.4048C17.3086 17.0448 17.6236 16.5048 17.6236 15.7735C17.6236 14.2548 16.4536 13.4673 15.0698 13.4673C13.6861 13.4673 12.5048 14.2548 12.5048 15.7735C12.5048 16.5048 12.8311 17.0448 13.3261 17.4048C12.6398 17.821 12.2461 18.5073 12.2461 19.306C12.2461 20.7573 13.3148 21.6573 15.0698 21.6573C16.8136 21.6573 17.8936 20.7573 17.8936 19.306C17.8936 18.5073 17.4998 17.821 16.8023 17.4048ZM15.0698 14.9298C15.6548 14.9298 16.0823 15.2673 16.0823 15.8523C16.0823 16.426 15.6548 16.786 15.0698 16.786C14.4848 16.786 14.0573 16.426 14.0573 15.8523C14.0573 15.2673 14.4848 14.9298 15.0698 14.9298ZM15.0698 20.1948C14.3273 20.1948 13.7873 19.8123 13.7873 19.1035C13.7873 18.406 14.3273 18.0235 15.0698 18.0235C15.8123 18.0235 16.3523 18.406 16.3523 19.1035C16.3523 19.8123 15.8123 20.1948 15.0698 20.1948Z" fill="white"/>
</svg>
