<svg width="25" height="25" viewBox="0 0 25 25" fill="none" xmlns="http://www.w3.org/2000/svg">
<g clip-path="url(#clip0_1_13823)">
<path d="M23.0439 9.43265C22.741 9.14981 22.5022 8.80528 22.3437 8.42232C22.1852 8.03936 22.1107 7.62686 22.1251 7.21265C22.1449 6.63773 22.0461 6.0649 21.8351 5.52974C21.6241 4.99457 21.3053 4.50851 20.8986 4.10174C20.4918 3.69497 20.0057 3.37619 19.4706 3.16518C18.9354 2.95417 18.3626 2.85545 17.7876 2.87515C17.3734 2.88922 16.9609 2.81439 16.578 2.65569C16.195 2.497 15.8505 2.25813 15.5676 1.95515C15.175 1.53492 14.7001 1.19987 14.1725 0.970805C13.6449 0.741737 13.0759 0.623535 12.5008 0.623535C11.9256 0.623535 11.3566 0.741737 10.829 0.970805C10.3015 1.19987 9.82659 1.53492 9.4339 1.95515C9.15313 2.26085 8.809 2.50155 8.42556 2.66046C8.04211 2.81936 7.6286 2.89263 7.2139 2.87515C6.63946 2.85954 6.06778 2.96011 5.53315 3.17082C4.99853 3.38154 4.51197 3.69806 4.10265 4.1014C3.69658 4.5088 3.37819 4.995 3.16709 5.53006C2.95599 6.06513 2.85663 6.63774 2.87515 7.21265C2.88938 7.62695 2.81462 8.03947 2.65592 8.42243C2.49722 8.80539 2.25826 9.14987 1.95515 9.43265C1.53505 9.82555 1.20013 10.3006 0.97115 10.8282C0.742174 11.3559 0.624023 11.925 0.624023 12.5002C0.624023 13.0754 0.742174 13.6444 0.97115 14.1721C1.20013 14.6997 1.53505 15.1748 1.95515 15.5677C2.25822 15.8502 2.49718 16.1945 2.65588 16.5772C2.81459 16.96 2.88936 17.3723 2.87515 17.7864C2.85509 18.3615 2.95355 18.9345 3.16441 19.4699C3.37528 20.0053 3.69403 20.4916 4.10086 20.8985C4.50768 21.3055 4.99388 21.6244 5.52921 21.8354C6.06455 22.0464 6.63757 22.145 7.21265 22.1252C7.62726 22.1107 8.04014 22.1855 8.42336 22.3445C8.80657 22.5034 9.15119 22.7428 9.4339 23.0464C9.82678 23.4663 10.3017 23.8011 10.8293 24.0299C11.3568 24.2588 11.9257 24.3769 12.5008 24.3769C13.0758 24.3769 13.6447 24.2588 14.1723 24.0299C14.6998 23.8011 15.1748 23.4663 15.5676 23.0464C15.8523 22.7456 16.1971 22.5082 16.5796 22.3494C16.9621 22.1907 17.3737 22.1143 17.7876 22.1252C18.3625 22.1449 18.9353 22.0461 19.4704 21.8351C20.0055 21.6241 20.4915 21.3053 20.8981 20.8985C21.3048 20.4917 21.6235 20.0056 21.8344 19.4705C22.0452 18.9353 22.1438 18.3625 22.1239 17.7877C22.1096 17.3735 22.1843 16.9612 22.3431 16.5784C22.5018 16.1956 22.7408 15.8514 23.0439 15.5689C23.464 15.176 23.7989 14.701 24.0279 14.1733C24.2569 13.6457 24.375 13.0766 24.375 12.5014C24.375 11.9262 24.2569 11.3571 24.0279 10.8295C23.7989 10.3018 23.464 9.82555 23.0439 9.43265ZM10.6251 6.87515C10.9567 6.87515 11.2746 7.00685 11.509 7.24127C11.7435 7.47569 11.8751 7.79363 11.8751 8.12515C11.8751 8.45667 11.7435 8.77462 11.509 9.00904C11.2746 9.24346 10.9567 9.37515 10.6251 9.37515C10.2936 9.37515 9.97569 9.24346 9.74127 9.00904C9.50684 8.77462 9.37515 8.45667 9.37515 8.12515C9.37515 7.79363 9.50684 7.47569 9.74127 7.24127C9.97569 7.00685 10.2936 6.87515 10.6251 6.87515ZM14.3751 18.2039C14.0436 18.2039 13.7257 18.0722 13.4913 17.8378C13.2568 17.6034 13.1251 17.2854 13.1251 16.9539C13.1251 16.6224 13.2568 16.3044 13.4913 16.07C13.7257 15.8356 14.0436 15.7039 14.3751 15.7039C14.7067 15.7039 15.0246 15.8356 15.259 16.07C15.4935 16.3044 15.6251 16.6224 15.6251 16.9539C15.6251 17.2854 15.4935 17.6034 15.259 17.8378C15.0246 18.0722 14.7067 18.2039 14.3751 18.2039ZM17.1339 9.6339L9.6339 17.1339C9.39814 17.3616 9.08239 17.4876 8.75465 17.4847C8.4269 17.4819 8.11339 17.3504 7.88163 17.1187C7.64987 16.8869 7.5184 16.5734 7.51556 16.2457C7.51271 15.9179 7.6387 15.6022 7.8664 15.3664L15.3664 7.8664C15.6022 7.6387 15.9179 7.51271 16.2456 7.51556C16.5734 7.51841 16.8869 7.64987 17.1187 7.88163C17.3504 8.11339 17.4819 8.4269 17.4847 8.75465C17.4876 9.0824 17.3616 9.39815 17.1339 9.6339Z" fill="white"/>
</g>
<defs>
<clipPath id="clip0_1_13823">
<rect width="25" height="25" fill="white"/>
</clipPath>
</defs>
</svg>
