<svg width="24" height="24" viewBox="0 0 24 24" fill="none" xmlns="http://www.w3.org/2000/svg">
<path d="M1.44624 8.14847C2.22511 4.83758 4.71223 2.27763 7.86696 1.53976L8.3925 1.41684C10.7687 0.861054 13.2313 0.861055 15.6075 1.41684L16.133 1.53976C19.2878 2.27763 21.7749 4.83758 22.5538 8.14848C23.1487 10.6777 23.1487 13.3223 22.5538 15.8515C21.7749 19.1624 19.2878 21.7224 16.133 22.4602L15.6075 22.5832C13.2313 23.1389 10.7687 23.1389 8.3925 22.5832L7.86696 22.4602C4.71223 21.7224 2.22511 19.1624 1.44624 15.8515C0.851252 13.3223 0.851252 10.6777 1.44624 8.14847Z" fill="white" fill-opacity="0.1"/>
<path d="M3.08682 5.27827L9.77971 10.3256C11.1079 11.3272 12.8921 11.3272 14.2203 10.3256L20.9132 5.27827M1.44624 15.8515C0.851252 13.3223 0.851252 10.6777 1.44624 8.14847C2.22511 4.83758 4.71223 2.27763 7.86696 1.53976L8.3925 1.41684C10.7687 0.861054 13.2313 0.861055 15.6075 1.41684L16.133 1.53976C19.2878 2.27763 21.7749 4.83758 22.5538 8.14848C23.1487 10.6777 23.1487 13.3223 22.5538 15.8515C21.7749 19.1624 19.2878 21.7224 16.133 22.4602L15.6075 22.5832C13.2313 23.1389 10.7687 23.1389 8.3925 22.5832L7.86696 22.4602C4.71223 21.7224 2.22511 19.1624 1.44624 15.8515Z" stroke="white" stroke-width="1.5" stroke-linecap="round"/>
</svg>
