<svg width="27" height="25" viewBox="0 0 27 25" fill="none" xmlns="http://www.w3.org/2000/svg">
<g clip-path="url(#clip0_1_13847)">
<path d="M13.8573 8.37314C13.8764 8.4245 13.9124 8.46905 13.9602 8.5006C14.008 8.53215 14.0652 8.54913 14.1239 8.54918H23.7224C23.771 8.54911 23.8187 8.53739 23.8609 8.51517C23.9031 8.49295 23.9384 8.46099 23.9634 8.42239C23.9883 8.38379 24.002 8.33987 24.0031 8.29492C24.0043 8.24996 23.9928 8.20549 23.9699 8.16585C21.7199 4.31168 17.977 0.353346 11.9999 0.00647055C11.8648 0.001572 11.7304 0.026175 11.6074 0.0782908C11.4845 0.130407 11.3765 0.208573 11.2923 0.306471C11.2073 0.408612 11.1506 0.528495 11.1273 0.655619C11.1039 0.782742 11.1146 0.913226 11.1584 1.03564L13.8573 8.37314Z" fill="white"/>
<path d="M15.0319 10.6321C14.9883 10.6323 14.9453 10.6417 14.9062 10.6598C14.8672 10.6779 14.8332 10.704 14.8069 10.7363C14.7808 10.7697 14.7637 10.8084 14.757 10.8491C14.7504 10.8899 14.7544 10.9316 14.7687 10.9706L17.9344 19.7363C17.9887 19.885 18.0904 20.015 18.226 20.1093C18.3616 20.2035 18.5249 20.2576 18.6943 20.2643C18.8637 20.2711 19.0313 20.2302 19.1752 20.1471C19.3191 20.0641 19.4325 19.9426 19.5004 19.7988C20.0115 18.5953 20.8901 17.5557 22.0289 16.807C23.1677 16.0584 24.5173 15.6331 25.9129 15.5831C26.0402 15.5745 26.164 15.5401 26.2754 15.4823C26.3868 15.4245 26.4831 15.3448 26.5575 15.2488C26.6272 15.1583 26.6744 15.0548 26.696 14.9455C26.7176 14.8362 26.713 14.7239 26.6824 14.6165C26.3159 13.3144 25.8567 12.0363 25.3077 10.7904C25.2867 10.7425 25.2507 10.7015 25.2044 10.6725C25.1582 10.6436 25.1036 10.6281 25.0478 10.6279L15.0319 10.6321Z" fill="white"/>
<path d="M14.0344 19.1759C14.0639 19.1763 14.0929 19.1684 14.1175 19.1534C14.1422 19.1383 14.1614 19.1168 14.1726 19.0916C14.1839 19.0663 14.1867 19.0385 14.1807 19.0118C14.1748 18.985 14.1602 18.9605 14.1391 18.9415L13.1896 18.0623C12.6166 17.5286 11.935 17.1054 11.1842 16.8174C10.4334 16.5293 9.62828 16.3821 8.81556 16.3842H7.32269L6.57794 14.6582C6.56084 14.6187 6.55446 14.5759 6.55936 14.5335C6.56426 14.4912 6.58028 14.4507 6.60604 14.4154C6.6318 14.3801 6.66649 14.3513 6.7071 14.3313C6.7477 14.3113 6.79297 14.3009 6.83894 14.3009H7.20906C8.39266 14.3004 9.53867 13.916 10.4479 13.2144L12.8836 11.3394C13.1991 11.067 13.3899 10.693 13.4168 10.2943C13.4437 9.89559 13.3047 9.5025 13.0283 9.19578C12.7519 8.88905 12.3592 8.69199 11.9307 8.64509C11.5023 8.59819 11.0707 8.70501 10.7247 8.94359L8.28794 10.8186C7.9851 11.0524 7.60338 11.1807 7.20906 11.1811H3.93756C3.66181 11.1802 3.39003 11.2419 3.14599 11.3608C2.90194 11.4796 2.69308 11.6521 2.53767 11.863C2.38226 12.0739 2.28504 12.3169 2.25451 12.5706C2.22399 12.8244 2.26109 13.0812 2.36256 13.3186L4.52031 18.0259C4.72217 18.4656 5.05918 18.8406 5.48944 19.1044C5.91969 19.3681 6.42419 19.5089 6.94019 19.5092H8.81556C9.18506 19.5084 9.55108 19.5753 9.89247 19.7062C10.2339 19.837 10.5439 20.0293 10.8046 20.2717L11.0757 20.5228C11.1271 20.5706 11.1966 20.5981 11.2695 20.5992C11.3424 20.6004 11.4129 20.5752 11.4661 20.529C11.5779 20.4335 11.6831 20.3316 11.7811 20.2238C12.0471 19.9032 12.388 19.6425 12.7782 19.461C13.1684 19.2796 13.5978 19.1821 14.0344 19.1759Z" fill="white"/>
<path d="M2.80664 9.5918C4.20461 9.5918 5.33789 8.54246 5.33789 7.24805C5.33789 5.95363 4.20461 4.9043 2.80664 4.9043C1.40867 4.9043 0.275391 5.95363 0.275391 7.24805C0.275391 8.54246 1.40867 9.5918 2.80664 9.5918Z" fill="white"/>
<path d="M25.7913 22.8648C24.0217 23.0137 22.7909 21.2439 22.7831 21.2304C22.6723 21.0881 22.5262 20.9726 22.3571 20.8937C22.1879 20.8148 22.0008 20.7747 21.8114 20.777C21.622 20.7792 21.436 20.8237 21.2691 20.9066C21.1022 20.9895 20.9593 21.1084 20.8526 21.2533C20.5191 21.7376 20.0625 22.1387 19.5228 22.4217C18.983 22.7046 18.3766 22.8607 17.7566 22.8762C17.1992 22.8632 16.6556 22.7134 16.1813 22.4422C15.7069 22.1709 15.3188 21.788 15.0566 21.3325C14.9637 21.1786 14.8319 21.0479 14.6725 20.9517C14.513 20.8555 14.3306 20.7966 14.1411 20.7801C13.9516 20.7636 13.7606 20.79 13.5846 20.857C13.4085 20.924 13.2527 21.0296 13.1306 21.1648C12.7106 21.6617 12.182 22.071 11.5795 22.3659C10.977 22.6609 10.3141 22.8347 9.63406 22.8762C9.01417 22.8434 8.41102 22.6776 7.87217 22.392C7.33332 22.1064 6.87352 21.7087 6.52906 21.2304C6.42772 21.095 6.29436 20.9829 6.13912 20.9024C5.98388 20.822 5.81087 20.7755 5.63326 20.7663C5.45565 20.7572 5.27813 20.7857 5.11422 20.8497C4.95031 20.9137 4.80434 21.0115 4.68743 21.1356C4.6728 21.1544 3.04268 23.0429 1.19093 22.9064C1.04257 22.8956 0.893389 22.9129 0.752469 22.9572C0.611548 23.0015 0.481836 23.0719 0.371226 23.1641C0.260616 23.2563 0.171422 23.3683 0.109073 23.4934C0.046724 23.6186 0.012524 23.7541 0.0085546 23.8919C-0.000445398 24.0887 0.0524297 25.0002 1.31805 25.0002C2.88821 24.9239 4.37657 24.3281 5.51206 23.321C6.59889 24.3486 8.07981 24.9374 9.63293 24.9596C11.2181 24.9326 12.7397 24.3779 13.9192 23.3971C14.4047 23.8927 14.9976 24.288 15.6591 24.5572C16.3207 24.8265 17.0362 24.9636 17.7588 24.9596C19.286 24.9562 20.75 24.3947 21.8324 23.3971C22.3601 23.9114 23.0005 24.3153 23.7107 24.5816C24.4209 24.8478 25.1844 24.9703 25.9499 24.9408C26.2483 24.9216 26.5262 24.7935 26.7225 24.5845C26.9188 24.3756 27.0175 24.103 26.9967 23.8268C26.976 23.5505 26.8376 23.2932 26.612 23.1114C26.3863 22.9296 26.0919 22.8383 25.7936 22.8575L25.7913 22.8648Z" fill="white"/>
</g>
<defs>
<clipPath id="clip0_1_13847">
<rect width="27" height="25" fill="white"/>
</clipPath>
</defs>
</svg>
