<svg width="27" height="28" viewBox="0 0 27 28" fill="none" xmlns="http://www.w3.org/2000/svg">
<path d="M9 14.3339V4.33324H12.6C13.8492 3.06053 15.5265 2.3411 17.2776 2.32688C19.0287 2.31265 20.7167 3.00474 21.985 4.257C23.2532 5.50926 24.0026 7.22366 24.0747 9.03817C24.1469 10.8527 23.5363 12.6252 22.3717 13.9816L24.5374 20.1486C24.693 20.5814 24.7645 21.0419 24.7477 21.5035C24.7309 21.9652 24.6262 22.4188 24.4395 22.8382C24.2529 23.2577 23.988 23.6346 23.6601 23.9474C23.3323 24.2602 22.948 24.5025 22.5294 24.6605C22.1108 24.8185 21.6662 24.889 21.2212 24.8679C20.7762 24.8469 20.3396 24.7347 19.9367 24.5378C19.5337 24.3409 19.1723 24.0632 18.8733 23.7208C18.5743 23.3783 18.3437 22.9779 18.1946 22.5426L15.9649 16.1912C14.6946 15.9208 13.5266 15.2759 12.6011 14.3339H9ZM6.75 14.3339H4.5C3.90326 14.3339 3.33097 14.0881 2.90901 13.6505C2.48705 13.2129 2.25 12.6194 2.25 12.0006V6.66657C2.25 6.04773 2.48705 5.45424 2.90901 5.01666C3.33097 4.57907 3.90326 4.33324 4.5 4.33324H6.75V14.3339ZM15.75 8.16691C15.4516 8.16691 15.1655 8.28982 14.9545 8.50861C14.7435 8.72741 14.625 9.02415 14.625 9.33357C14.625 9.64299 14.7435 9.93974 14.9545 10.1585C15.1655 10.3773 15.4516 10.5002 15.75 10.5002H19.125C19.4234 10.5002 19.7095 10.3773 19.9205 10.1585C20.1315 9.93974 20.25 9.64299 20.25 9.33357C20.25 9.02415 20.1315 8.72741 19.9205 8.50861C19.7095 8.28982 19.4234 8.16691 19.125 8.16691H15.75Z" fill="white"/>
</svg>
