<svg width="29" height="28" viewBox="0 0 29 28" fill="none" xmlns="http://www.w3.org/2000/svg">
<path fill-rule="evenodd" clip-rule="evenodd" d="M16.3527 1.00453C15.1405 0.680782 13.8601 0.680782 12.648 1.00453C11.9157 1.20053 11.2535 1.54586 10.5225 2.03119C9.80716 2.50486 8.97703 3.14536 7.92337 3.95969L7.89558 3.98069L5.47891 5.84736L5.37016 5.93136C4.14128 6.87986 3.38487 7.46436 2.83266 8.19936C2.34411 8.85016 1.98066 9.58043 1.75966 10.3554C1.51074 11.2304 1.51074 12.166 1.51074 13.685V19.8334C1.51074 21.6125 2.24275 23.3188 3.54574 24.5769C4.19091 25.1998 4.95685 25.6939 5.79981 26.0311C6.64277 26.3682 7.54625 26.5417 8.45866 26.5417C9.33995 26.5417 10.1851 26.2037 10.8083 25.602C11.4315 25.0003 11.7816 24.1843 11.7816 23.3334V18.6667C11.7816 17.9705 12.068 17.3028 12.5779 16.8105C13.0877 16.3183 13.7793 16.0417 14.5003 16.0417C15.2214 16.0417 15.9129 16.3183 16.4228 16.8105C16.9326 17.3028 17.2191 17.9705 17.2191 18.6667V23.3334C17.2191 24.1843 17.5692 25.0003 18.1923 25.602C18.8155 26.2037 19.6607 26.5417 20.542 26.5417C22.3847 26.5417 24.1519 25.8349 25.4549 24.5769C26.7579 23.3188 27.4899 21.6125 27.4899 19.8334V13.685C27.4899 12.166 27.4899 11.2315 27.241 10.3554C27.0196 9.58035 26.6558 8.85007 26.1668 8.19936C25.6146 7.46436 24.8594 6.88103 23.6305 5.93136L23.5217 5.84736L21.1051 3.98069L21.0773 3.95969C20.0236 3.14536 19.1935 2.50486 18.4782 2.03003C17.7471 1.54586 17.0849 1.20053 16.3527 1.00453Z" fill="white"/>
</svg>
