<svg width="30" height="30" viewBox="0 0 30 30" fill="none" xmlns="http://www.w3.org/2000/svg">
<path fill-rule="evenodd" clip-rule="evenodd" d="M10.0496 0.572832C13.3057 -0.190944 16.6943 -0.190944 19.9504 0.572831C24.6526 1.67582 28.3242 5.34736 29.4272 10.0496C30.1909 13.3057 30.1909 16.6943 29.4272 19.9504C28.3242 24.6526 24.6526 28.3242 19.9504 29.4272C16.6943 30.1909 13.3057 30.1909 10.0496 29.4272C5.34736 28.3242 1.67583 24.6527 0.572833 19.9504C-0.190944 16.6943 -0.190944 13.3057 0.572833 10.0496C1.67583 5.34735 5.34736 1.67582 10.0496 0.572832ZM15 11.809C15.8811 11.809 16.5954 11.0947 16.5954 10.2135C16.5954 9.33237 15.8811 8.61805 15 8.61805C14.1188 8.61805 13.4045 9.33237 13.4045 10.2135C13.4045 11.0947 14.1188 11.809 15 11.809ZM15 13.0056C15.6608 13.0056 16.1966 13.5414 16.1966 14.2022V20.5841C16.1966 21.245 15.6608 21.7807 15 21.7807C14.3391 21.7807 13.8033 21.245 13.8033 20.5841V14.2022C13.8033 13.5414 14.3391 13.0056 15 13.0056Z" fill="white"/>
</svg>
