<svg width="22" height="22" viewBox="0 0 22 22" fill="none" xmlns="http://www.w3.org/2000/svg">
<mask id="mask0_1_12141" style="mask-type:luminance" maskUnits="userSpaceOnUse" x="0" y="0" width="22" height="22">
<path d="M22 0H0V21.0435H22V0Z" fill="white"/>
</mask>
<g mask="url(#mask0_1_12141)">
<path fill-rule="evenodd" clip-rule="evenodd" d="M10.9796 -0.000123281H11.4454C12.2613 -0.000123281 12.9194 -0.000123213 13.4541 0.0410488C13.9652 0.0637007 14.4665 0.183117 14.9291 0.392383C15.6378 0.737374 16.2141 1.2883 16.5752 1.96607C16.7937 2.40854 16.9182 2.88807 16.9416 3.3769C16.9846 3.88652 16.9846 4.51599 16.9846 5.29826V5.86369C17.4751 5.91735 17.9526 6.05039 18.3965 6.25711C19.2933 6.69463 20.0222 7.39253 20.4788 8.25075C20.7565 8.81303 20.9139 9.42273 20.9418 10.044C20.9991 10.7128 20.9991 11.5445 20.9991 12.5921V13.8071C20.9991 14.8557 20.9991 15.6864 20.9418 16.3552C20.9134 16.9766 20.7564 17.5865 20.4798 18.1494C20.0226 19.0071 19.2933 19.7043 18.3965 20.1412C17.8082 20.4066 17.1705 20.5571 16.5207 20.5841C15.8215 20.639 14.952 20.639 13.8568 20.639H8.5701C7.47393 20.639 6.60541 20.639 5.90619 20.5841C5.25682 20.557 4.61954 20.4068 4.03141 20.1421C3.13424 19.7048 2.40494 19.0069 1.9481 18.1485C1.67104 17.5857 1.51399 16.9758 1.4861 16.3543C1.42871 15.6855 1.42871 14.8538 1.42871 13.8062V12.5912C1.42871 11.5427 1.42871 10.7119 1.4861 10.0431C1.51434 9.42197 1.67138 8.8124 1.9481 8.24984C2.40494 7.39148 3.13424 6.69356 4.03141 6.25619C4.47486 6.04904 4.95198 5.91568 5.44228 5.86186V5.29643C5.44228 4.51599 5.44228 3.88652 5.48532 3.37507C5.509 2.88618 5.63385 2.40665 5.85262 1.96424C6.2133 1.28627 6.78926 0.735024 7.49784 0.389639C7.96042 0.180666 8.46175 0.0615595 8.9728 0.0392189C9.50558 -0.00195317 10.1637 -0.00195312 10.9815 -0.00195312L10.9796 -0.000123281ZM15.4752 5.32754V5.76945C14.997 5.7603 14.4594 5.7603 13.8491 5.7603H8.5701C7.96271 5.7603 7.42228 5.7603 6.94402 5.76945V5.32754C6.94402 4.50959 6.94402 3.93867 6.98228 3.49767C6.99084 3.19591 7.06137 2.89871 7.18984 2.62299C7.40697 2.21437 7.75435 1.88241 8.18175 1.67512C8.47031 1.55214 8.78135 1.48467 9.09715 1.47658C9.56106 1.4409 10.157 1.43998 11.0102 1.43998H11.4119C12.268 1.43998 12.8639 1.43998 13.325 1.47658C13.6407 1.48493 13.9517 1.55239 14.2404 1.67512C14.6667 1.88172 15.0137 2.21229 15.2313 2.61933C15.3599 2.89534 15.4304 3.19286 15.4389 3.49492C15.4762 3.93867 15.4771 4.50959 15.4771 5.32754H15.4752ZM6.02575 7.2489C5.57196 7.26176 5.12531 7.36033 4.71149 7.53893C4.09787 7.83803 3.59897 8.31524 3.28628 8.90218C3.09994 9.29813 2.99691 9.72529 2.98306 10.1593C2.93141 10.7641 2.93045 11.5317 2.93045 12.6223V13.7751C2.93045 14.863 2.93045 15.6343 2.98306 16.2381C2.99651 16.6722 3.09956 17.0994 3.28628 17.4952C3.59897 18.0822 4.09787 18.5594 4.71149 18.8585C5.12544 19.0367 5.57201 19.1353 6.02575 19.1485C6.65802 19.1979 7.46054 19.1988 8.60071 19.1988H13.8252C14.9625 19.1988 15.7689 19.1988 16.4002 19.1485C16.854 19.1357 17.3006 19.0371 17.7145 18.8585C18.3281 18.5594 18.827 18.0822 19.1397 17.4952C19.326 17.0993 19.429 16.6721 19.4429 16.2381C19.4945 15.6334 19.4955 14.8657 19.4955 13.7751V12.6223C19.4955 11.5344 19.4955 10.7632 19.4429 10.1593C19.4294 9.72524 19.3264 9.29801 19.1397 8.90218C18.827 8.31524 18.3281 7.83803 17.7145 7.53893C17.3005 7.36069 16.8539 7.26214 16.4002 7.2489C15.7679 7.19949 14.9654 7.19858 13.8252 7.19858H8.60358C7.46723 7.19949 6.65993 7.19949 6.02862 7.2489H6.02575ZM11.9629 12.238C11.9629 12.0471 11.8836 11.8639 11.7424 11.7289C11.6012 11.5938 11.4098 11.518 11.2101 11.518C11.0105 11.518 10.819 11.5938 10.6778 11.7289C10.5366 11.8639 10.4573 12.0471 10.4573 12.238V14.1594C10.4573 14.254 10.4768 14.3476 10.5146 14.4349C10.5525 14.5223 10.6079 14.6017 10.6778 14.6685C10.7477 14.7354 10.8307 14.7884 10.922 14.8246C11.0134 14.8608 11.1112 14.8794 11.2101 14.8794C11.309 14.8794 11.4068 14.8608 11.4982 14.8246C11.5895 14.7884 11.6725 14.7354 11.7424 14.6685C11.8123 14.6017 11.8678 14.5223 11.9056 14.4349C11.9434 14.3476 11.9629 14.254 11.9629 14.1594V12.238Z" fill="#F2F2F2"/>
</g>
</svg>
