<svg width="41" height="41" viewBox="0 0 41 41" fill="none" xmlns="http://www.w3.org/2000/svg">
<path d="M7.35592 19.4701C8.22816 16.2461 10.9231 13.7729 14.3157 13.0829L14.7873 12.987C18.5538 12.221 22.4455 12.221 26.212 12.987L26.6837 13.0829C30.0763 13.7729 32.7712 16.2461 33.6434 19.4701C34.5053 22.6555 34.2978 26.0211 33.0506 29.0866L32.8919 29.4767C31.6171 32.6101 28.7145 34.864 25.2577 35.4047L23.9786 35.6047C21.6745 35.9651 19.3248 35.9651 17.0207 35.6047L15.7416 35.4047C12.2848 34.864 9.3822 32.6101 8.1074 29.4766L7.94871 29.0866C6.70156 26.0211 6.4941 22.6555 7.35592 19.4701Z" fill="white" fill-opacity="0.1"/>
<path d="M7.94871 29.0866L7.25401 29.3692H7.25401L7.94871 29.0866ZM7.35592 19.4701L8.07989 19.6659L7.35592 19.4701ZM33.6434 19.4701L32.9195 19.6659L33.6434 19.4701ZM33.0506 29.0866L33.7453 29.3692L33.7453 29.3692L33.0506 29.0866ZM23.9786 35.6047L23.8627 34.8637L23.9786 35.6047ZM17.0207 35.6047L16.9048 36.3457L17.0207 35.6047ZM14.7873 12.987L14.6379 12.252L14.6379 12.252L14.7873 12.987ZM26.212 12.987L26.3615 12.252V12.252L26.212 12.987ZM15.7416 35.4047L15.8575 34.6637L15.7416 35.4047ZM8.1074 29.4766L8.80211 29.194L8.80211 29.194L8.1074 29.4766ZM25.2577 35.4047L25.3736 36.1457L25.2577 35.4047ZM32.8919 29.4767L32.1972 29.194V29.194L32.8919 29.4767ZM26.6837 13.0829L26.5342 13.8179L26.6837 13.0829ZM14.3157 13.0829L14.4651 13.8179V13.8179L14.3157 13.0829ZM12.3081 12.6939C12.3081 13.1081 12.6439 13.4439 13.0581 13.4439C13.4723 13.4439 13.8081 13.1081 13.8081 12.6939H13.0581H12.3081ZM13.0581 12.1765H12.3081H13.0581ZM27.9411 12.1765H27.1911H27.9411ZM27.1911 12.6939C27.1911 13.1081 27.5269 13.4439 27.9411 13.4439C28.3553 13.4439 28.6911 13.1081 28.6911 12.6939H27.9411H27.1911ZM18.538 5.36632L18.356 4.63874L18.356 4.63874L18.538 5.36632ZM22.4612 5.36632L22.6432 4.63874L22.4612 5.36632ZM14.3157 13.0829L14.4651 13.8179L14.9368 13.7219L14.7873 12.987L14.6379 12.252L14.1662 12.348L14.3157 13.0829ZM26.212 12.987L26.0626 13.7219L26.5342 13.8179L26.6837 13.0829L26.8332 12.348L26.3615 12.252L26.212 12.987ZM25.2577 35.4047L25.1418 34.6637L23.8627 34.8637L23.9786 35.6047L24.0945 36.3457L25.3736 36.1457L25.2577 35.4047ZM17.0207 35.6047L17.1366 34.8637L15.8575 34.6637L15.7416 35.4047L15.6257 36.1457L16.9048 36.3457L17.0207 35.6047ZM33.0506 29.0866L32.3559 28.804L32.1972 29.194L32.8919 29.4767L33.5866 29.7593L33.7453 29.3692L33.0506 29.0866ZM8.1074 29.4766L8.80211 29.194L8.64342 28.804L7.94871 29.0866L7.25401 29.3692L7.41269 29.7593L8.1074 29.4766ZM7.94871 29.0866L8.64342 28.804C7.45792 25.89 7.26106 22.6925 8.07989 19.6659L7.35592 19.4701L6.63194 19.2742C5.72714 22.6186 5.94521 26.1522 7.25401 29.3692L7.94871 29.0866ZM33.6434 19.4701L32.9195 19.6659C33.7383 22.6925 33.5414 25.89 32.3559 28.804L33.0506 29.0866L33.7453 29.3692C35.0541 26.1522 35.2722 22.6186 34.3674 19.2742L33.6434 19.4701ZM23.9786 35.6047L23.8627 34.8637C21.6354 35.2121 19.3639 35.2121 17.1366 34.8637L17.0207 35.6047L16.9048 36.3457C19.2857 36.7181 21.7136 36.7181 24.0945 36.3457L23.9786 35.6047ZM14.7873 12.987L14.9368 13.7219C18.6047 12.976 22.3947 12.976 26.0626 13.7219L26.212 12.987L26.3615 12.252C22.4964 11.466 18.503 11.466 14.6379 12.252L14.7873 12.987ZM15.7416 35.4047L15.8575 34.6637C12.6498 34.162 9.97365 32.0737 8.80211 29.194L8.1074 29.4766L7.41269 29.7593C8.79075 33.1466 11.9198 35.5661 15.6257 36.1457L15.7416 35.4047ZM25.2577 35.4047L25.3736 36.1457C29.0795 35.5661 32.2086 33.1466 33.5866 29.7593L32.8919 29.4767L32.1972 29.194C31.0257 32.0737 28.3495 34.162 25.1418 34.6637L25.2577 35.4047ZM26.6837 13.0829L26.5342 13.8179C29.6617 14.4539 32.1247 16.7283 32.9195 19.6659L33.6434 19.4701L34.3674 19.2742C33.4177 15.7638 30.491 13.0919 26.8332 12.348L26.6837 13.0829ZM14.3157 13.0829L14.1662 12.348C10.5084 13.0919 7.58166 15.7638 6.63194 19.2742L7.35592 19.4701L8.07989 19.6659C8.87466 16.7283 11.3377 14.4539 14.4651 13.8179L14.3157 13.0829ZM13.0581 12.6939H13.8081V12.1765H13.0581H12.3081V12.6939H13.0581ZM27.9411 12.1765H27.1911V12.6939H27.9411H28.6911V12.1765H27.9411ZM18.538 5.36632L18.72 6.0939C19.8868 5.80203 21.1124 5.80203 22.2792 6.0939L22.4612 5.36632L22.6432 4.63874C21.2375 4.28709 19.7618 4.28709 18.356 4.63874L18.538 5.36632ZM27.9411 12.1765H28.6911C28.6911 8.61031 26.1862 5.52499 22.6432 4.63874L22.4612 5.36632L22.2792 6.0939C25.1911 6.8223 27.1911 9.33557 27.1911 12.1765H27.9411ZM13.0581 12.1765H13.8081C13.8081 9.33556 15.8081 6.8223 18.72 6.0939L18.538 5.36632L18.356 4.63874C14.8131 5.52499 12.3081 8.61031 12.3081 12.1765H13.0581Z" fill="white"/>
<path d="M20.5 23.0625L20.5 26.4792" stroke="white" stroke-width="1.5" stroke-linecap="round"/>
</svg>
