<svg width="33" height="33" viewBox="0 0 33 33" fill="none" xmlns="http://www.w3.org/2000/svg">
<path d="M3.96742 12.167C4.89232 8.44227 7.84577 5.56234 11.592 4.73223L12.2161 4.59394C15.0378 3.96869 17.9622 3.96869 20.7839 4.59394L21.408 4.73223C25.1542 5.56234 28.1077 8.44228 29.0326 12.167C29.7391 15.0125 29.7391 17.9875 29.0326 20.833C28.1077 24.5577 25.1542 27.4377 21.408 28.2678L20.7839 28.4061C17.9622 29.0313 15.0378 29.0313 12.2161 28.4061L11.592 28.2678C7.84577 27.4377 4.89232 24.5577 3.96741 20.833C3.26086 17.9875 3.26086 15.0125 3.96742 12.167Z" fill="white" fill-opacity="0.1"/>
<path d="M4.40354 11.9628H28.5965M3.96741 20.833C3.26086 17.9875 3.26086 15.0125 3.96742 12.167C4.89232 8.44227 7.84577 5.56234 11.592 4.73223L12.2161 4.59394C15.0378 3.96869 17.9622 3.96869 20.7839 4.59394L21.408 4.73223C25.1542 5.56234 28.1077 8.44228 29.0326 12.167C29.7391 15.0125 29.7391 17.9875 29.0326 20.833C28.1077 24.5577 25.1542 27.4377 21.408 28.2678L20.7839 28.4061C17.9622 29.0313 15.0378 29.0313 12.2161 28.4061L11.592 28.2678C7.84577 27.4377 4.89232 24.5577 3.96741 20.833Z" stroke="white" stroke-width="1.5"/>
<path d="M9.625 16.5L15.125 16.5" stroke="white" stroke-width="1.5" stroke-linecap="round"/>
</svg>
