<svg width="28" height="32" viewBox="0 0 28 32" fill="none" xmlns="http://www.w3.org/2000/svg">
<path fill-rule="evenodd" clip-rule="evenodd" d="M15.2727 1.23615C15.2727 0.553445 14.7029 0 14 0C13.2971 0 12.7273 0.553445 12.7273 1.23615V1.72228C11.9678 1.80851 11.216 1.96657 10.484 2.19592C6.67165 3.39054 3.69236 6.38718 2.63732 10.1513L1.62767 13.7535L0.82812 17.2538C0.757698 17.5621 0.671265 17.9028 0.580426 18.261C0.391876 19.0043 0.184337 19.8226 0.0616001 20.5806C0.0209749 20.8315 0 21.088 0 21.3484C0 23.6855 1.69504 25.6992 4.0533 26.1636L4.6771 26.2864C5.71747 26.4913 6.76321 26.6616 7.8125 26.7971C7.82225 26.8388 7.83241 26.8804 7.84296 26.9219L7.98206 27.4687C8.53213 29.6312 10.2797 31.3143 12.5108 31.8302C13.4899 32.0566 14.5101 32.0566 15.4892 31.8302C17.7203 31.3143 19.4679 29.6312 20.0179 27.4687L20.157 26.9219C20.1676 26.8804 20.1777 26.8388 20.1875 26.7971C21.2368 26.6616 22.2825 26.4913 23.3229 26.2864L23.9467 26.1636C26.305 25.6992 28 23.6855 28 21.3484C28 21.088 27.979 20.8315 27.9384 20.5806C27.8157 19.8226 27.6082 19.0044 27.4196 18.2611C27.3288 17.903 27.2423 17.562 27.1719 17.2538L26.3734 13.7583L25.3774 10.0883C24.3692 6.37372 21.4929 3.40768 17.7355 2.20811C16.9329 1.95189 16.1066 1.78343 15.2727 1.70201V1.23615ZM13.1003 29.4251C11.8634 29.1391 10.8807 28.2393 10.5084 27.0688C12.8329 27.2373 15.1671 27.2373 17.4916 27.0688C17.1193 28.2393 16.1366 29.1391 14.8997 29.4251C14.3082 29.5619 13.6918 29.5619 13.1003 29.4251Z" fill="#D9D9D9"/>
</svg>
