<svg width="27" height="24" viewBox="0 0 27 24" fill="none" xmlns="http://www.w3.org/2000/svg">
<path fill-rule="evenodd" clip-rule="evenodd" d="M25.1182 1.98253L4.28965 22.8866C3.83776 23.3402 3.10509 23.3402 2.6532 22.8866C2.20131 22.4331 2.20131 21.6978 2.6532 21.2443L3.76985 20.1236C2.87803 19.2658 2.08037 18.2677 1.40699 17.1312C-0.468997 13.9649 -0.468996 10.0361 1.40699 6.86985C5.73382 -0.432895 15.0647 -1.90053 21.4194 2.40998L23.4818 0.340148C23.9337 -0.113383 24.6663 -0.113383 25.1182 0.340148C25.5701 0.79368 25.5701 1.529 25.1182 1.98253ZM15.1286 8.72359C14.6366 8.48272 14.084 8.34788 13.4992 8.34788C11.4447 8.34788 9.77939 10.0188 9.77939 12.0828C9.77939 12.6696 9.91362 13.2237 10.1533 13.7169L15.1286 8.72359Z" fill="white"/>
<path d="M24.007 6.46521C24.5563 6.13739 25.2664 6.31855 25.593 6.86983C27.469 10.0361 27.469 13.9649 25.593 17.1312C21.9723 23.2422 14.8418 25.2628 8.90542 23.2441C8.30015 23.0383 7.97573 22.379 8.18081 21.7716C8.38589 21.1641 9.04281 20.8385 9.64809 21.0443C14.6469 22.7442 20.5922 21.0271 23.6038 15.944C25.0463 13.5094 25.0463 10.4916 23.6038 8.05697C23.2772 7.50568 23.4577 6.79303 24.007 6.46521Z" fill="white"/>
<path d="M18.3777 10.9214C19.0168 10.9214 19.5349 11.4413 19.5349 12.0827C19.5349 15.4282 16.8317 18.1387 13.4992 18.1387C12.8602 18.1387 12.3421 17.6188 12.3421 16.9774C12.3421 16.336 12.8602 15.8161 13.4992 15.8161C15.5545 15.8161 17.2206 14.1445 17.2206 12.0827C17.2206 11.4413 17.7387 10.9214 18.3777 10.9214Z" fill="white"/>
</svg>
