<svg width="25" height="28" viewBox="0 0 25 28" fill="none" xmlns="http://www.w3.org/2000/svg">
<path d="M0.00437521 3.65726C0.00437521 1.60026 1.79958 -0.198244 4.11833 0.0176311C11.6685 0.722867 18.6635 4.07252 23.7213 9.40476C25.2817 11.0451 24.796 13.4803 23.0227 14.6916L22.4058 15.1138L21.8765 14.3713L21.8648 14.3561C17.2127 8.29651 9.64396 4.35301 1.09813 4.35301H0.00437521V3.65726ZM20.0827 15.551L20.634 16.3251L14.8779 20.2645L14.5833 20.4708V23.361C14.5833 23.7257 14.4297 24.0754 14.1562 24.3333C13.8827 24.5911 13.5118 24.736 13.125 24.736C12.7382 24.736 12.3673 24.5911 12.0938 24.3333C11.8203 24.0754 11.6667 23.7257 11.6667 23.361V23.2785C11.6433 23.1054 11.5511 22.9472 11.4086 22.8359C11.2662 22.7246 11.0842 22.6684 10.8995 22.6789C10.7148 22.6894 10.5412 22.7657 10.414 22.8924C10.2867 23.019 10.2153 23.1866 10.2142 23.361V25.4249C10.2142 25.7777 10.0704 26.117 9.81259 26.3726C9.55474 26.6283 9.20254 26.7807 8.82884 26.7983C8.45514 26.816 8.08854 26.6975 7.80487 26.4675C7.5212 26.2375 7.34216 25.9134 7.30479 25.5624L5.20479 26.9924C3.03333 28.4691 -0.00145781 27.0075 5.2539e-07 24.4816L0.00437521 6.41413H1.09813C8.90604 6.41413 15.8215 10.0125 20.0827 15.551ZM5.83917 12.361C6.22594 12.361 6.59687 12.2161 6.87037 11.9583C7.14386 11.7004 7.2975 11.3507 7.2975 10.986C7.2975 10.6213 7.14386 10.2716 6.87037 10.0137C6.59687 9.75587 6.22594 9.61101 5.83917 9.61101C5.45239 9.61101 5.08146 9.75587 4.80797 10.0137C4.53448 10.2716 4.38083 10.6213 4.38083 10.986C4.38083 11.3507 4.53448 11.7004 4.80797 11.9583C5.08146 12.2161 5.45239 12.361 5.83917 12.361ZM11.6725 16.4833C12.0593 16.4833 12.4302 16.3384 12.7037 16.0805C12.9772 15.8227 13.1308 15.4729 13.1308 15.1083C13.1308 14.7436 12.9772 14.3938 12.7037 14.136C12.4302 13.8781 12.0593 13.7333 11.6725 13.7333C11.2857 13.7333 10.9148 13.8781 10.6413 14.136C10.3678 14.3938 10.2142 14.7436 10.2142 15.1083C10.2142 15.4729 10.3678 15.8227 10.6413 16.0805C10.9148 16.3384 11.2857 16.4833 11.6725 16.4833ZM5.83917 20.6055C6.22594 20.6055 6.59687 20.4606 6.87037 20.2028C7.14386 19.9449 7.2975 19.5952 7.2975 19.2305C7.2975 18.8658 7.14386 18.5161 6.87037 18.2582C6.59687 18.0004 6.22594 17.8555 5.83917 17.8555C5.45239 17.8555 5.08146 18.0004 4.80797 18.2582C4.53448 18.5161 4.38083 18.8658 4.38083 19.2305C4.38083 19.5952 4.53448 19.9449 4.80797 20.2028C5.08146 20.4606 5.45239 20.6055 5.83917 20.6055Z" fill="white"/>
</svg>
