<svg width="28" height="28" viewBox="0 0 28 28" fill="none" xmlns="http://www.w3.org/2000/svg">
<path d="M1.20605 16.3226L1.93623 16.1514L1.93623 16.1514L1.20605 16.3226ZM1.20605 8.44022L1.93623 8.6115L1.93623 8.6115L1.20605 8.44022ZM23.5568 8.44023L24.287 8.26895L23.5568 8.44023ZM23.5568 16.3226L22.8266 16.1513L23.5568 16.3226ZM16.3226 23.5568L16.4939 24.287L16.3226 23.5568ZM8.44023 23.5568L8.6115 22.8266L8.44023 23.5568ZM8.44022 1.20605L8.26895 0.47587L8.44022 1.20605ZM16.3226 1.20605L16.4939 0.47587L16.4939 0.47587L16.3226 1.20605ZM26.2197 27.2803C26.5126 27.5732 26.9874 27.5732 27.2803 27.2803C27.5732 26.9874 27.5732 26.5126 27.2803 26.2197L26.75 26.75L26.2197 27.2803ZM1.20605 16.3226L1.93623 16.1514C1.35459 13.6717 1.35459 11.0911 1.93623 8.6115L1.20605 8.44022L0.475871 8.26894C-0.158624 10.9739 -0.158624 13.789 0.475871 16.4939L1.20605 16.3226ZM23.5568 8.44023L22.8266 8.6115C23.4083 11.0911 23.4083 13.6717 22.8266 16.1513L23.5568 16.3226L24.287 16.4939C24.9215 13.789 24.9215 10.9739 24.287 8.26895L23.5568 8.44023ZM16.3226 23.5568L16.1513 22.8266C13.6717 23.4083 11.0911 23.4083 8.6115 22.8266L8.44023 23.5568L8.26895 24.287C10.9739 24.9215 13.789 24.9215 16.4939 24.287L16.3226 23.5568ZM8.44022 1.20605L8.6115 1.93623C11.0911 1.35459 13.6717 1.35459 16.1514 1.93623L16.3226 1.20605L16.4939 0.47587C13.789 -0.158624 10.9739 -0.158623 8.26895 0.47587L8.44022 1.20605ZM8.44023 23.5568L8.6115 22.8266C5.29933 22.0497 2.71316 19.4635 1.93623 16.1514L1.20605 16.3226L0.475871 16.4939C1.3829 20.3607 4.40214 23.38 8.26895 24.287L8.44023 23.5568ZM16.3226 23.5568L16.4939 24.287C20.3607 23.38 23.38 20.3607 24.287 16.4939L23.5568 16.3226L22.8266 16.1513C22.0497 19.4635 19.4635 22.0497 16.1513 22.8266L16.3226 23.5568ZM16.3226 1.20605L16.1514 1.93623C19.4635 2.71316 22.0497 5.29933 22.8266 8.6115L23.5568 8.44023L24.287 8.26895C23.3799 4.40214 20.3607 1.3829 16.4939 0.47587L16.3226 1.20605ZM8.44022 1.20605L8.26895 0.47587C4.40214 1.3829 1.3829 4.40213 0.475871 8.26894L1.20605 8.44022L1.93623 8.6115C2.71316 5.29933 5.29933 2.71316 8.6115 1.93623L8.44022 1.20605ZM21.4563 21.4563L20.926 21.9866L26.2197 27.2803L26.75 26.75L27.2803 26.2197L21.9866 20.926L21.4563 21.4563Z" fill="#8E8E8E"/>
</svg>
