<svg width="35" height="36" viewBox="0 0 35 36" fill="none" xmlns="http://www.w3.org/2000/svg">
<g clip-path="url(#clip0_1_13839)">
<path d="M27.7083 7.50244H24.7917C23.1817 7.50244 21.875 8.84633 21.875 10.5022V15.0018H13.125V10.5022C13.125 8.84633 11.8183 7.50244 10.2083 7.50244H7.29167C5.68167 7.50244 4.375 8.84633 4.375 10.5022V22.5012C4.375 24.1571 5.68167 25.5009 7.29167 25.5009H10.2083C11.8183 25.5009 13.125 24.1571 13.125 22.5012V18.0016H21.875V22.5012C21.875 24.1571 23.1817 25.5009 24.7917 25.5009H27.7083C29.3183 25.5009 30.625 24.1571 30.625 22.5012V10.5022C30.625 8.84483 29.3198 7.50244 27.7083 7.50244Z" fill="white"/>
<path d="M34.9997 13.502H32.083V19.5015H34.9997V13.502Z" fill="white"/>
<path d="M2.91667 13.502H0V19.5015H2.91667V13.502Z" fill="white"/>
</g>
<defs>
<clipPath id="clip0_1_13839">
<rect width="35" height="36" fill="white"/>
</clipPath>
</defs>
</svg>
