<svg width="25" height="31" viewBox="0 0 25 31" fill="none" xmlns="http://www.w3.org/2000/svg">
<path d="M1 26.9574C1 23.0696 3.78846 19.7581 7.57807 19.1454L7.91942 19.0902C10.9539 18.5996 14.0461 18.5996 17.0806 19.0902L17.4219 19.1454C21.2115 19.7581 24 23.0696 24 26.9574C24 28.6378 22.6554 30 20.9966 30H4.00335C2.34465 30 1 28.6378 1 26.9574Z" fill="white" fill-opacity="0.1"/>
<path d="M19.2084 7.34375C19.2084 10.8473 16.2049 13.6875 12.5 13.6875C8.79512 13.6875 5.7917 10.8473 5.7917 7.34375C5.7917 3.84019 8.79512 1 12.5 1C16.2049 1 19.2084 3.84019 19.2084 7.34375Z" fill="white" fill-opacity="0.1"/>
<path d="M1 26.9574C1 23.0696 3.78846 19.7581 7.57807 19.1454L7.91942 19.0902C10.9539 18.5996 14.0461 18.5996 17.0806 19.0902L17.4219 19.1454C21.2115 19.7581 24 23.0696 24 26.9574C24 28.6378 22.6554 30 20.9966 30H4.00335C2.34465 30 1 28.6378 1 26.9574Z" stroke="white" stroke-width="1.5"/>
<path d="M19.2084 7.34375C19.2084 10.8473 16.2049 13.6875 12.5 13.6875C8.79512 13.6875 5.7917 10.8473 5.7917 7.34375C5.7917 3.84019 8.79512 1 12.5 1C16.2049 1 19.2084 3.84019 19.2084 7.34375Z" stroke="white" stroke-width="1.5"/>
</svg>
